<!-- Generated by IcoMoon.io -->
<svg version="1.1" xmlns="http://www.w3.org/2000/svg" width="16" height="16" viewBox="0 0 16 16">
<title>volleyball</title>
<path fill="#fff" d="M14.401 7.135c-1.797-1.712-4.319-2.616-6.942-2.277 0.152 0.904 0.458 1.798 0.929 2.643 2.282 0.035 4.352 0.944 5.89 2.406-0.009 0.031 0.044-0.164 0.073-0.295 0.098-0.439 0.149-0.895 0.149-1.363 0-0.24-0.014-0.477-0.040-0.71-0.029-0.255-0.080-0.522-0.059-0.406v0zM14.175 6.254c-1.85-1.483-4.274-2.232-6.785-1.906-0.080-0.772-0.050-1.546 0.084-2.3-0.026 0.003 0.090-0.011 0.174-0.019 0.198-0.019 0.399-0.029 0.602-0.029 2.62 0 4.864 1.613 5.793 3.9 0.072 0.178 0.153 0.417 0.132 0.355v0zM14.106 10.439c-0.713-0.719-1.558-1.307-2.496-1.726-1.11 2.654-3.366 4.515-5.976 5.215-0.030-0.014 0.084 0.039 0.172 0.076 0.751 0.319 1.576 0.496 2.444 0.496 2.6 0 4.829-1.588 5.771-3.846 0.045-0.108 0.099-0.253 0.085-0.215v0zM4.951 13.559c2.69-0.532 5.059-2.356 6.184-5.041-0.859-0.321-1.786-0.502-2.753-0.517-1.199 2.005-3.081 3.361-5.176 3.94-0.024-0.033 0.084 0.115 0.167 0.218 0.356 0.444 0.772 0.838 1.235 1.171 0.131 0.094 0.364 0.242 0.343 0.23v0zM2.911 11.502c1.008-0.257 1.968-0.704 2.821-1.324-1.455-1.907-2.036-4.228-1.785-6.46 0.018-0.017-0.215 0.21-0.34 0.349-0.999 1.108-1.607 2.575-1.607 4.184 0 1.079 0.273 2.094 0.755 2.98 0.069 0.128 0.178 0.306 0.157 0.272v0zM4.539 3.221c-0.407 2.268 0.109 4.686 1.599 6.641 0.703-0.582 1.319-1.291 1.813-2.116-0.987-1.772-1.293-3.745-0.999-5.611 0.016-0.003-0.088 0.019-0.155 0.035-0.708 0.169-1.369 0.458-1.961 0.844-0.142 0.093-0.336 0.236-0.297 0.207v0z"></path>
</svg>
